<mxfile host="Electron" agent="Mozilla/5.0 (Macintosh; Intel Mac OS X 10_15_7) AppleWebKit/537.36 (KHTML, like Gecko) draw.io/26.0.4 Chrome/128.0.6613.186 Electron/32.2.5 Safari/537.36" version="26.0.4">
  <diagram name="RetoApplication" id="0TU7kLSTMfAtBH84V3L5">
    <mxGraphModel dx="1436" dy="1170" grid="0" gridSize="10" guides="1" tooltips="1" connect="1" arrows="1" fold="1" page="0" pageScale="1" pageWidth="1100" pageHeight="850" math="0" shadow="0">
      <root>
        <mxCell id="0" />
        <mxCell id="1" parent="0" />
        <mxCell id="xFE5yeYqDjbZi0KiS9FR-2" value="AWS Cloud" style="points=[[0,0],[0.25,0],[0.5,0],[0.75,0],[1,0],[1,0.25],[1,0.5],[1,0.75],[1,1],[0.75,1],[0.5,1],[0.25,1],[0,1],[0,0.75],[0,0.5],[0,0.25]];outlineConnect=0;gradientColor=none;html=1;whiteSpace=wrap;fontSize=12;fontStyle=0;container=1;pointerEvents=0;collapsible=0;recursiveResize=0;shape=mxgraph.aws4.group;grIcon=mxgraph.aws4.group_aws_cloud_alt;strokeColor=#232F3E;fillColor=none;verticalAlign=top;align=left;spacingLeft=30;fontColor=#232F3E;dashed=0;" vertex="1" parent="1">
          <mxGeometry x="-334" y="-133" width="997" height="751" as="geometry" />
        </mxCell>
        <mxCell id="xFE5yeYqDjbZi0KiS9FR-3" value="Region" style="points=[[0,0],[0.25,0],[0.5,0],[0.75,0],[1,0],[1,0.25],[1,0.5],[1,0.75],[1,1],[0.75,1],[0.5,1],[0.25,1],[0,1],[0,0.75],[0,0.5],[0,0.25]];outlineConnect=0;gradientColor=none;html=1;whiteSpace=wrap;fontSize=12;fontStyle=0;container=1;pointerEvents=0;collapsible=0;recursiveResize=0;shape=mxgraph.aws4.group;grIcon=mxgraph.aws4.group_region;strokeColor=#00A4A6;fillColor=none;verticalAlign=top;align=left;spacingLeft=30;fontColor=#147EBA;dashed=1;" vertex="1" parent="xFE5yeYqDjbZi0KiS9FR-2">
          <mxGeometry x="22" y="88" width="965" height="706" as="geometry" />
        </mxCell>
        <mxCell id="xFE5yeYqDjbZi0KiS9FR-4" value="VPC" style="sketch=0;outlineConnect=0;html=1;whiteSpace=wrap;fontSize=12;fontStyle=0;shape=mxgraph.aws4.group;grIcon=mxgraph.aws4.group_vpc;verticalAlign=top;align=left;spacingLeft=30;dashed=0;" vertex="1" parent="xFE5yeYqDjbZi0KiS9FR-3">
          <mxGeometry x="40" y="31" width="925" height="492" as="geometry" />
        </mxCell>
        <mxCell id="xFE5yeYqDjbZi0KiS9FR-5" value="Availability zone" style="sketch=0;outlineConnect=0;gradientColor=none;html=1;whiteSpace=wrap;fontSize=12;fontStyle=0;shape=mxgraph.aws4.group;grIcon=mxgraph.aws4.group_availability_zone;strokeColor=#545B64;fillColor=none;verticalAlign=top;align=left;spacingLeft=30;fontColor=#545B64;dashed=1;" vertex="1" parent="xFE5yeYqDjbZi0KiS9FR-3">
          <mxGeometry x="146" y="46" width="801" height="224" as="geometry" />
        </mxCell>
        <mxCell id="xFE5yeYqDjbZi0KiS9FR-7" value="Public subnet" style="points=[[0,0],[0.25,0],[0.5,0],[0.75,0],[1,0],[1,0.25],[1,0.5],[1,0.75],[1,1],[0.75,1],[0.5,1],[0.25,1],[0,1],[0,0.75],[0,0.5],[0,0.25]];outlineConnect=0;gradientColor=none;html=1;whiteSpace=wrap;fontSize=12;fontStyle=0;container=1;pointerEvents=0;collapsible=0;recursiveResize=0;shape=mxgraph.aws4.group;grIcon=mxgraph.aws4.group_security_group;grStroke=0;strokeColor=#7AA116;fillColor=#F2F6E8;verticalAlign=top;align=left;spacingLeft=30;fontColor=#248814;dashed=0;" vertex="1" parent="xFE5yeYqDjbZi0KiS9FR-3">
          <mxGeometry x="158" y="80" width="139" height="158" as="geometry" />
        </mxCell>
        <mxCell id="xFE5yeYqDjbZi0KiS9FR-15" value="" style="sketch=0;outlineConnect=0;fontColor=#232F3E;gradientColor=none;fillColor=#8C4FFF;strokeColor=none;dashed=0;verticalLabelPosition=bottom;verticalAlign=top;align=center;html=1;fontSize=12;fontStyle=0;aspect=fixed;pointerEvents=1;shape=mxgraph.aws4.nat_gateway;" vertex="1" parent="xFE5yeYqDjbZi0KiS9FR-7">
          <mxGeometry x="36" y="50" width="45" height="45" as="geometry" />
        </mxCell>
        <mxCell id="xFE5yeYqDjbZi0KiS9FR-9" value="" style="sketch=0;outlineConnect=0;fontColor=#232F3E;gradientColor=none;fillColor=#8C4FFF;strokeColor=none;dashed=0;verticalLabelPosition=bottom;verticalAlign=top;align=center;html=1;fontSize=12;fontStyle=0;aspect=fixed;pointerEvents=1;shape=mxgraph.aws4.internet_gateway;" vertex="1" parent="xFE5yeYqDjbZi0KiS9FR-3">
          <mxGeometry x="11.5" y="256" width="51.5" height="51.5" as="geometry" />
        </mxCell>
        <mxCell id="xFE5yeYqDjbZi0KiS9FR-10" value="" style="sketch=0;points=[[0,0,0],[0.25,0,0],[0.5,0,0],[0.75,0,0],[1,0,0],[0,1,0],[0.25,1,0],[0.5,1,0],[0.75,1,0],[1,1,0],[0,0.25,0],[0,0.5,0],[0,0.75,0],[1,0.25,0],[1,0.5,0],[1,0.75,0]];outlineConnect=0;fontColor=#232F3E;fillColor=#ED7100;strokeColor=#ffffff;dashed=0;verticalLabelPosition=bottom;verticalAlign=top;align=center;html=1;fontSize=12;fontStyle=0;aspect=fixed;shape=mxgraph.aws4.resourceIcon;resIcon=mxgraph.aws4.eks;" vertex="1" parent="xFE5yeYqDjbZi0KiS9FR-3">
          <mxGeometry x="63" y="91" width="48" height="48" as="geometry" />
        </mxCell>
        <mxCell id="xFE5yeYqDjbZi0KiS9FR-11" value="Private subnet" style="points=[[0,0],[0.25,0],[0.5,0],[0.75,0],[1,0],[1,0.25],[1,0.5],[1,0.75],[1,1],[0.75,1],[0.5,1],[0.25,1],[0,1],[0,0.75],[0,0.5],[0,0.25]];outlineConnect=0;gradientColor=none;html=1;whiteSpace=wrap;fontSize=12;fontStyle=0;container=1;pointerEvents=0;collapsible=0;recursiveResize=0;shape=mxgraph.aws4.group;grIcon=mxgraph.aws4.group_security_group;grStroke=0;strokeColor=#00A4A6;fillColor=#E6F6F7;verticalAlign=top;align=left;spacingLeft=30;fontColor=#147EBA;dashed=0;" vertex="1" parent="xFE5yeYqDjbZi0KiS9FR-3">
          <mxGeometry x="328" y="78" width="595" height="160" as="geometry" />
        </mxCell>
        <mxCell id="xFE5yeYqDjbZi0KiS9FR-12" value="Availability zone" style="sketch=0;outlineConnect=0;gradientColor=none;html=1;whiteSpace=wrap;fontSize=12;fontStyle=0;shape=mxgraph.aws4.group;grIcon=mxgraph.aws4.group_availability_zone;strokeColor=#545B64;fillColor=none;verticalAlign=top;align=left;spacingLeft=30;fontColor=#545B64;dashed=1;" vertex="1" parent="xFE5yeYqDjbZi0KiS9FR-3">
          <mxGeometry x="143" y="284" width="801" height="224" as="geometry" />
        </mxCell>
        <mxCell id="xFE5yeYqDjbZi0KiS9FR-13" value="Public subnet" style="points=[[0,0],[0.25,0],[0.5,0],[0.75,0],[1,0],[1,0.25],[1,0.5],[1,0.75],[1,1],[0.75,1],[0.5,1],[0.25,1],[0,1],[0,0.75],[0,0.5],[0,0.25]];outlineConnect=0;gradientColor=none;html=1;whiteSpace=wrap;fontSize=12;fontStyle=0;container=1;pointerEvents=0;collapsible=0;recursiveResize=0;shape=mxgraph.aws4.group;grIcon=mxgraph.aws4.group_security_group;grStroke=0;strokeColor=#7AA116;fillColor=#F2F6E8;verticalAlign=top;align=left;spacingLeft=30;fontColor=#248814;dashed=0;" vertex="1" parent="xFE5yeYqDjbZi0KiS9FR-3">
          <mxGeometry x="158" y="324" width="139" height="158" as="geometry" />
        </mxCell>
        <mxCell id="xFE5yeYqDjbZi0KiS9FR-16" value="" style="sketch=0;outlineConnect=0;fontColor=#232F3E;gradientColor=none;fillColor=#8C4FFF;strokeColor=none;dashed=0;verticalLabelPosition=bottom;verticalAlign=top;align=center;html=1;fontSize=12;fontStyle=0;aspect=fixed;pointerEvents=1;shape=mxgraph.aws4.nat_gateway;" vertex="1" parent="xFE5yeYqDjbZi0KiS9FR-13">
          <mxGeometry x="36" y="56.5" width="45" height="45" as="geometry" />
        </mxCell>
        <mxCell id="xFE5yeYqDjbZi0KiS9FR-14" value="Private subnet" style="points=[[0,0],[0.25,0],[0.5,0],[0.75,0],[1,0],[1,0.25],[1,0.5],[1,0.75],[1,1],[0.75,1],[0.5,1],[0.25,1],[0,1],[0,0.75],[0,0.5],[0,0.25]];outlineConnect=0;gradientColor=none;html=1;whiteSpace=wrap;fontSize=12;fontStyle=0;container=1;pointerEvents=0;collapsible=0;recursiveResize=0;shape=mxgraph.aws4.group;grIcon=mxgraph.aws4.group_security_group;grStroke=0;strokeColor=#00A4A6;fillColor=#E6F6F7;verticalAlign=top;align=left;spacingLeft=30;fontColor=#147EBA;dashed=0;" vertex="1" parent="xFE5yeYqDjbZi0KiS9FR-3">
          <mxGeometry x="328" y="324" width="595" height="160" as="geometry" />
        </mxCell>
        <mxCell id="xFE5yeYqDjbZi0KiS9FR-18" style="edgeStyle=orthogonalEdgeStyle;rounded=0;orthogonalLoop=1;jettySize=auto;html=1;fontSize=12;startSize=8;endSize=8;" edge="1" parent="xFE5yeYqDjbZi0KiS9FR-3" source="xFE5yeYqDjbZi0KiS9FR-16" target="xFE5yeYqDjbZi0KiS9FR-9">
          <mxGeometry relative="1" as="geometry">
            <mxPoint x="37" y="307" as="targetPoint" />
            <Array as="points">
              <mxPoint x="103" y="401" />
              <mxPoint x="103" y="282" />
            </Array>
          </mxGeometry>
        </mxCell>
        <mxCell id="xFE5yeYqDjbZi0KiS9FR-19" style="edgeStyle=orthogonalEdgeStyle;rounded=0;orthogonalLoop=1;jettySize=auto;html=1;fontSize=12;startSize=8;endSize=8;" edge="1" parent="xFE5yeYqDjbZi0KiS9FR-3" source="xFE5yeYqDjbZi0KiS9FR-15" target="xFE5yeYqDjbZi0KiS9FR-9">
          <mxGeometry relative="1" as="geometry">
            <Array as="points">
              <mxPoint x="102" y="153" />
              <mxPoint x="102" y="282" />
            </Array>
          </mxGeometry>
        </mxCell>
        <mxCell id="xFE5yeYqDjbZi0KiS9FR-20" value="Internet GW" style="text;strokeColor=none;fillColor=none;html=1;align=center;verticalAlign=middle;whiteSpace=wrap;rounded=0;fontSize=16;" vertex="1" parent="xFE5yeYqDjbZi0KiS9FR-3">
          <mxGeometry x="-18" y="316" width="60" height="30" as="geometry" />
        </mxCell>
      </root>
    </mxGraphModel>
  </diagram>
</mxfile>
